<?xml version="1.0" encoding="UTF-8"?>
<svg xmlns="http://www.w3.org/2000/svg" xmlns:xlink="http://www.w3.org/1999/xlink" width="595.2pt" height="595pt" viewBox="0 0 595.2 595" version="1.1">
<defs>
<clipPath id="clip1">
  <path d="M 0 0 L 595.199219 0 L 595.199219 595 L 0 595 Z M 0 0 "/>
</clipPath>
</defs>
<g id="surface1">
<g clip-path="url(#clip1)" clip-rule="nonzero">
<path style=" stroke:none;fill-rule:evenodd;fill:rgb(0%,40.380859%,60.351563%);fill-opacity:1;" d="M 47.925781 161.359375 L 237.011719 161.359375 L 237.011719 408.570313 C 209.136719 424.683594 176.84375 433.914063 142.46875 433.914063 C 108.097656 433.914063 75.804688 424.6875 47.925781 408.570313 Z M 0.00390625 0 L 19.472656 0 L 19.472656 3.042969 L 3.046875 3.042969 L 3.046875 19.464844 L 0.00390625 19.464844 Z M 595.28125 595.277344 L 575.816406 595.277344 L 575.816406 592.234375 L 592.238281 592.234375 L 592.238281 575.808594 L 595.28125 575.808594 Z M 0.0078125 595.277344 L 0.00390625 575.808594 L 3.046875 575.808594 L 3.046875 592.234375 L 19.472656 592.234375 L 19.472656 595.277344 Z M 595.28125 0 L 595.28125 19.464844 L 592.238281 19.464844 L 592.238281 3.042969 L 575.816406 3.042969 L 575.816406 0 Z M 273.089844 319.429688 C 273.089844 321.570313 273.375 323.390625 276.097656 324.929688 L 256.851563 324.929688 C 259.601563 323.410156 259.863281 321.558594 259.863281 319.429688 L 259.863281 270.601563 C 259.863281 268.457031 259.65625 266.652344 256.851563 265.148438 L 273.089844 265.148438 Z M 273.089844 265.148438 L 376.351563 265.148438 L 363.09375 276.703125 L 344.746094 276.703125 C 341.5625 277.484375 340.339844 279.269531 340.367188 281.257813 C 340.421875 285.609375 345.859375 286.035156 351.503906 287.398438 C 355.621094 288.390625 359.746094 289.636719 361.640625 290.296875 C 369.578125 293.0625 375.148438 297.511719 375.269531 306.871094 C 375.4375 319.753906 362.199219 325.367188 349.992188 325.71875 C 343.179688 325.914063 336.527344 324.546875 329.984375 322.976563 L 326.925781 311.109375 C 330.949219 312.648438 340.726563 314.910156 349.089844 314.953125 C 357.988281 314.996094 362.464844 313.015625 362.304688 307.722656 C 362.171875 303.371094 358.363281 301.265625 352.71875 299.90625 C 348.601563 298.910156 343.699219 298.050781 341.804688 297.390625 C 333.867188 294.628906 327.394531 292.113281 327.269531 282.753906 C 327.242188 280.523438 327.613281 278.507813 328.316406 276.703125 L 309.144531 276.703125 L 309.144531 319.429688 C 309.144531 321.570313 309.429688 323.390625 312.152344 324.929688 L 292.910156 324.929688 C 295.660156 323.410156 295.917969 321.558594 295.917969 319.429688 L 295.917969 276.703125 L 259.863281 276.703125 Z M 547.363281 397.015625 C 547.109375 396.832031 546.855469 396.699219 546.59375 396.613281 C 546.328125 396.53125 546.046875 396.492188 545.726563 396.492188 C 544.570313 396.492188 543.691406 396.882813 543.085938 397.664063 C 542.480469 398.4375 542.179688 399.566406 542.179688 401.039063 L 542.179688 406.972656 C 542.179688 407.667969 542.265625 408.25 542.445313 408.71875 C 542.628906 409.1875 542.914063 409.601563 543.304688 409.945313 L 537.960938 409.945313 C 538.359375 409.601563 538.652344 409.1875 538.824219 408.71875 C 538.996094 408.25 539.085938 407.667969 539.085938 406.972656 L 539.085938 397.066406 C 539.085938 396.359375 538.996094 395.761719 538.816406 395.28125 C 538.632813 394.800781 538.351563 394.386719 537.960938 394.035156 L 538.316406 394.035156 C 538.851563 394.035156 539.414063 394.007813 540.011719 393.945313 C 540.605469 393.886719 541.257813 393.796875 541.964844 393.679688 L 542.210938 396.210938 C 542.691406 395.363281 543.238281 394.734375 543.863281 394.328125 C 544.484375 393.917969 545.191406 393.710938 545.988281 393.710938 C 546.183594 393.710938 546.386719 393.722656 546.59375 393.746094 C 546.796875 393.769531 547.054688 393.808594 547.363281 393.875 Z M 523.421875 399.371094 L 531.921875 399.371094 C 531.855469 398.25 531.441406 397.328125 530.675781 396.613281 C 529.917969 395.898438 528.96875 395.542969 527.835938 395.542969 C 526.613281 395.542969 525.609375 395.882813 524.828125 396.5625 C 524.042969 397.246094 523.574219 398.183594 523.421875 399.371094 Z M 523.195313 401.609375 C 523.273438 403.589844 523.898438 405.167969 525.078125 406.339844 C 526.261719 407.511719 527.808594 408.097656 529.71875 408.097656 C 530.566406 408.097656 531.464844 407.960938 532.40625 407.679688 C 533.351563 407.402344 534.371094 406.976563 535.46875 406.398438 L 533.703125 409.472656 C 532.757813 409.824219 531.871094 410.085938 531.054688 410.257813 C 530.234375 410.429688 529.472656 410.519531 528.75 410.519531 C 526.101563 410.519531 523.925781 409.71875 522.210938 408.117188 C 520.496094 406.515625 519.644531 404.484375 519.644531 402.015625 C 519.644531 399.488281 520.429688 397.414063 522.003906 395.792969 C 523.585938 394.175781 525.59375 393.367188 528.046875 393.367188 C 530.304688 393.367188 532.09375 394.101563 533.425781 395.582031 C 534.757813 397.0625 535.4375 399.070313 535.46875 401.609375 Z M 505.410156 407.429688 C 505.832031 407.667969 506.269531 407.847656 506.714844 407.960938 C 507.160156 408.078125 507.640625 408.132813 508.152344 408.132813 C 509.996094 408.132813 511.453125 407.578125 512.53125 406.480469 C 513.601563 405.382813 514.136719 403.890625 514.136719 402.015625 C 514.136719 400.320313 513.695313 398.941406 512.8125 397.890625 C 511.933594 396.835938 510.777344 396.3125 509.347656 396.3125 C 508.945313 396.3125 508.503906 396.367188 508.027344 396.484375 C 507.546875 396.597656 507.003906 396.765625 506.40625 396.984375 L 508.121094 393.941406 C 508.484375 393.890625 508.808594 393.847656 509.097656 393.820313 C 509.382813 393.789063 509.660156 393.78125 509.917969 393.78125 C 512.199219 393.78125 514.023438 394.5 515.398438 395.945313 C 516.769531 397.390625 517.457031 399.308594 517.457031 401.710938 C 517.457031 404.421875 516.570313 406.574219 514.789063 408.175781 C 513.015625 409.777344 510.609375 410.582031 507.578125 410.582031 C 506.777344 410.582031 505.839844 410.515625 504.765625 410.375 C 503.703125 410.242188 502.496094 410.039063 501.15625 409.785156 C 501.546875 409.433594 501.832031 409.019531 502.015625 408.539063 C 502.195313 408.058594 502.285156 407.46875 502.285156 406.757813 L 502.285156 389.621094 C 502.285156 388.914063 502.195313 388.320313 502.015625 387.847656 C 501.832031 387.375 501.546875 386.964844 501.15625 386.613281 L 505.410156 386.613281 Z M 475.636719 406.972656 C 475.636719 407.667969 475.726563 408.25 475.90625 408.71875 C 476.089844 409.1875 476.375 409.601563 476.765625 409.945313 L 471.417969 409.945313 C 471.820313 409.601563 472.109375 409.1875 472.285156 408.71875 C 472.457031 408.25 472.546875 407.667969 472.546875 406.972656 L 472.546875 397.066406 C 472.546875 396.359375 472.457031 395.761719 472.277344 395.28125 C 472.09375 394.800781 471.808594 394.386719 471.417969 394.035156 L 471.777344 394.035156 C 472.3125 394.035156 472.875 394.007813 473.472656 393.945313 C 474.0625 393.886719 474.714844 393.796875 475.425781 393.679688 L 475.570313 396.210938 C 476.378906 395.351563 477.199219 394.71875 478.042969 394.296875 C 478.878906 393.886719 479.761719 393.679688 480.6875 393.679688 C 481.796875 393.679688 482.800781 393.90625 483.695313 394.367188 C 484.589844 394.824219 485.390625 395.519531 486.113281 396.457031 C 487.105469 395.5 488.046875 394.796875 488.945313 394.347656 C 489.84375 393.902344 490.765625 393.679688 491.703125 393.679688 C 493.457031 393.679688 494.878906 394.214844 495.976563 395.28125 C 497.070313 396.351563 497.617188 397.757813 497.617188 399.5 L 497.617188 406.972656 C 497.617188 407.667969 497.707031 408.25 497.886719 408.71875 C 498.070313 409.1875 498.359375 409.601563 498.761719 409.945313 L 493.398438 409.945313 C 493.800781 409.601563 494.089844 409.1875 494.277344 408.71875 C 494.453125 408.25 494.542969 407.667969 494.542969 406.972656 L 494.542969 401.28125 C 494.542969 399.550781 494.230469 398.289063 493.605469 397.496094 C 492.976563 396.710938 491.980469 396.3125 490.621094 396.3125 C 489.207031 396.3125 488.191406 396.675781 487.574219 397.402344 C 486.960938 398.125 486.652344 399.335938 486.652344 401.039063 L 486.652344 406.972656 C 486.652344 407.667969 486.742188 408.25 486.914063 408.71875 C 487.089844 409.1875 487.378906 409.601563 487.78125 409.945313 L 482.382813 409.945313 C 482.785156 409.601563 483.074219 409.1875 483.261719 408.71875 C 483.4375 408.25 483.527344 407.667969 483.527344 406.972656 L 483.527344 401.28125 C 483.527344 399.550781 483.214844 398.289063 482.589844 397.496094 C 481.960938 396.710938 480.964844 396.3125 479.605469 396.3125 C 478.191406 396.3125 477.175781 396.675781 476.558594 397.402344 C 475.945313 398.125 475.636719 399.335938 475.636719 401.039063 Z M 456.882813 399.371094 L 465.378906 399.371094 C 465.3125 398.25 464.898438 397.328125 464.136719 396.613281 C 463.378906 395.898438 462.429688 395.542969 461.296875 395.542969 C 460.074219 395.542969 459.070313 395.882813 458.289063 396.5625 C 457.5 397.246094 457.03125 398.183594 456.882813 399.371094 Z M 456.652344 401.609375 C 456.730469 403.589844 457.355469 405.167969 458.539063 406.339844 C 459.722656 407.511719 461.265625 408.097656 463.175781 408.097656 C 464.023438 408.097656 464.921875 407.960938 465.867188 407.679688 C 466.808594 407.402344 467.828125 406.976563 468.929688 406.398438 L 467.160156 409.472656 C 466.21875 409.824219 465.332031 410.085938 464.515625 410.257813 C 463.695313 410.429688 462.929688 410.519531 462.210938 410.519531 C 459.558594 410.519531 457.382813 409.71875 455.671875 408.117188 C 453.957031 406.515625 453.101563 404.484375 453.101563 402.015625 C 453.101563 399.488281 453.890625 397.414063 455.464844 395.792969 C 457.042969 394.175781 459.050781 393.367188 461.507813 393.367188 C 463.761719 393.367188 465.554688 394.101563 466.886719 395.582031 C 468.214844 397.0625 468.894531 399.070313 468.929688 401.609375 Z M 433.082031 416.910156 C 433.484375 416.558594 433.773438 416.152344 433.945313 415.683594 C 434.117188 415.214844 434.207031 414.632813 434.207031 413.9375 L 434.207031 397.0625 C 434.207031 396.351563 434.117188 395.761719 433.941406 395.28125 C 433.757813 394.800781 433.472656 394.386719 433.082031 394.035156 L 433.503906 394.035156 C 434.097656 394.035156 434.6875 394.007813 435.289063 393.945313 C 435.886719 393.886719 436.5 393.796875 437.121094 393.679688 L 437.265625 396.210938 C 438.085938 395.320313 438.980469 394.648438 439.957031 394.203125 C 440.933594 393.757813 441.976563 393.535156 443.085938 393.535156 C 445.285156 393.535156 447.144531 394.308594 448.648438 395.859375 C 450.164063 397.417969 450.914063 399.332031 450.914063 401.609375 C 450.914063 403.105469 450.625 404.464844 450.039063 405.703125 C 449.460938 406.9375 448.621094 407.964844 447.535156 408.769531 C 446.816406 409.316406 446.050781 409.71875 445.246094 409.984375 C 444.4375 410.253906 443.570313 410.386719 442.644531 410.386719 C 442.253906 410.386719 441.84375 410.359375 441.417969 410.304688 C 440.992188 410.253906 440.570313 410.175781 440.144531 410.074219 L 438.164063 407.199219 C 438.839844 407.507813 439.472656 407.730469 440.046875 407.875 C 440.625 408.027344 441.167969 408.097656 441.679688 408.097656 C 443.476563 408.097656 444.878906 407.574219 445.886719 406.53125 C 446.898438 405.480469 447.402344 404.019531 447.402344 402.148438 C 447.402344 400.347656 446.898438 398.875 445.898438 397.71875 C 444.894531 396.5625 443.628906 395.984375 442.085938 395.984375 C 441.433594 395.984375 440.816406 396.101563 440.222656 396.328125 C 439.636719 396.558594 439.109375 396.886719 438.640625 397.324219 C 438.160156 397.757813 437.824219 398.3125 437.628906 398.96875 C 437.433594 399.628906 437.332031 400.742188 437.332031 402.3125 L 437.332031 413.9375 C 437.332031 414.632813 437.421875 415.214844 437.601563 415.683594 C 437.785156 416.152344 438.070313 416.558594 438.460938 416.910156 Z M 416.535156 401.515625 C 416.535156 403.496094 417.042969 405.101563 418.0625 406.324219 C 419.085938 407.550781 420.40625 408.164063 422.042969 408.164063 C 423.582031 408.164063 424.839844 407.617188 425.816406 406.523438 C 426.792969 405.425781 427.277344 404.015625 427.277344 402.277344 C 427.277344 400.414063 426.757813 398.878906 425.714844 397.667969 C 424.675781 396.457031 423.355469 395.855469 421.753906 395.855469 C 420.246094 395.855469 419 396.390625 418.015625 397.46875 C 417.027344 398.539063 416.535156 399.890625 416.535156 401.515625 Z M 413.019531 402.183594 C 413.019531 400.984375 413.246094 399.855469 413.699219 398.808594 C 414.152344 397.753906 414.808594 396.816406 415.6875 395.984375 C 416.523438 395.203125 417.507813 394.589844 418.628906 394.152344 C 419.75 393.71875 420.914063 393.5 422.125 393.5 C 423.382813 393.5 424.515625 393.703125 425.523438 394.101563 C 426.539063 394.511719 427.457031 395.125 428.277344 395.949219 C 429.078125 396.757813 429.699219 397.667969 430.125 398.671875 C 430.546875 399.683594 430.757813 400.738281 430.757813 401.835938 C 430.757813 403.046875 430.535156 404.179688 430.089844 405.230469 C 429.644531 406.285156 428.984375 407.21875 428.109375 408.039063 C 427.28125 408.808594 426.304688 409.410156 425.183594 409.839844 C 424.0625 410.269531 422.894531 410.488281 421.6875 410.488281 C 420.40625 410.488281 419.269531 410.292969 418.269531 409.902344 C 417.265625 409.503906 416.351563 408.898438 415.519531 408.066406 C 414.714844 407.261719 414.097656 406.347656 413.667969 405.332031 C 413.238281 404.308594 413.019531 403.261719 413.019531 402.183594 Z M 410.09375 387.238281 C 409.605469 387.664063 409.257813 388.148438 409.058594 388.695313 C 408.855469 389.238281 408.757813 390.085938 408.757813 391.230469 L 408.757813 410.46875 C 407.957031 410.449219 407.203125 410.191406 406.488281 409.699219 C 405.78125 409.207031 404.882813 408.277344 403.804688 406.90625 L 392.074219 392.128906 L 392.074219 405.921875 C 392.074219 407.109375 392.175781 407.976563 392.371094 408.507813 C 392.566406 409.042969 392.902344 409.523438 393.382813 409.945313 L 388.238281 409.945313 C 388.714844 409.511719 389.058594 409.019531 389.261719 408.46875 C 389.46875 407.914063 389.574219 407.066406 389.574219 405.921875 L 389.574219 391.230469 C 389.574219 390.085938 389.46875 389.238281 389.261719 388.695313 C 389.058594 388.148438 388.714844 387.664063 388.238281 387.238281 L 392.847656 387.238281 L 406.289063 404.289063 L 406.289063 391.230469 C 406.289063 390.085938 406.183594 389.238281 405.976563 388.695313 C 405.769531 388.148438 405.429688 387.664063 404.949219 387.238281 Z M 363.195313 406.972656 C 363.195313 407.667969 363.285156 408.25 363.464844 408.71875 C 363.648438 409.1875 363.933594 409.601563 364.324219 409.945313 L 358.976563 409.945313 C 359.378906 409.601563 359.671875 409.1875 359.84375 408.71875 C 360.015625 408.25 360.105469 407.667969 360.105469 406.972656 L 360.105469 389.984375 C 360.105469 389.28125 360.015625 388.703125 359.84375 388.234375 C 359.671875 387.765625 359.378906 387.355469 358.976563 387.003906 L 359.273438 387.003906 C 359.742188 387.003906 360.296875 386.972656 360.929688 386.902344 C 361.566406 386.84375 362.304688 386.742188 363.128906 386.613281 L 363.128906 396.210938 C 363.949219 395.34375 364.769531 394.699219 365.601563 394.292969 C 366.429688 393.886719 367.308594 393.679688 368.246094 393.679688 C 370.011719 393.679688 371.449219 394.214844 372.554688 395.292969 C 373.660156 396.363281 374.210938 397.769531 374.210938 399.5 L 374.210938 406.972656 C 374.210938 407.667969 374.300781 408.25 374.476563 408.71875 C 374.648438 409.1875 374.9375 409.601563 375.339844 409.945313 L 369.945313 409.945313 C 370.34375 409.601563 370.636719 409.1875 370.820313 408.71875 C 371 408.25 371.085938 407.667969 371.085938 406.972656 L 371.085938 401.28125 C 371.085938 399.539063 370.777344 398.265625 370.148438 397.472656 C 369.519531 396.675781 368.527344 396.28125 367.164063 396.28125 C 365.753906 396.28125 364.738281 396.640625 364.117188 397.375 C 363.503906 398.105469 363.195313 399.328125 363.195313 401.035156 Z M 352.4375 407.804688 C 351.617188 408.671875 350.796875 409.316406 349.964844 409.734375 C 349.140625 410.148438 348.257813 410.351563 347.320313 410.351563 C 345.570313 410.351563 344.132813 409.8125 343.023438 408.722656 C 341.914063 407.640625 341.355469 406.230469 341.355469 404.484375 L 341.355469 397.0625 C 341.355469 396.351563 341.265625 395.761719 341.089844 395.28125 C 340.902344 394.800781 340.617188 394.382813 340.226563 394.035156 L 340.6875 394.035156 C 341.316406 394.035156 341.953125 394.007813 342.582031 393.945313 C 343.214844 393.886719 343.84375 393.796875 344.464844 393.679688 L 344.480469 402.746094 C 344.480469 404.472656 344.792969 405.726563 345.414063 406.519531 C 346.03125 407.304688 347.023438 407.703125 348.386719 407.703125 C 349.808594 407.703125 350.832031 407.339844 351.449219 406.609375 C 352.0625 405.878906 352.371094 404.65625 352.371094 402.949219 L 352.371094 397.0625 C 352.371094 396.351563 352.28125 395.761719 352.105469 395.28125 C 351.917969 394.800781 351.628906 394.382813 351.226563 394.035156 L 351.632813 394.035156 C 352.214844 394.035156 352.816406 394.007813 353.441406 393.945313 C 354.066406 393.886719 354.742188 393.796875 355.464844 393.679688 L 355.464844 406.558594 C 355.464844 407.257813 355.550781 407.84375 355.726563 408.3125 C 355.898438 408.78125 356.1875 409.1875 356.589844 409.539063 L 356.292969 409.539063 C 355.816406 409.539063 355.289063 409.570313 354.710938 409.632813 C 354.132813 409.699219 353.429688 409.804688 352.601563 409.945313 Z M 336.78125 406.972656 C 336.78125 407.667969 336.867188 408.25 337.046875 408.71875 C 337.230469 409.1875 337.515625 409.59375 337.90625 409.945313 L 332.59375 409.945313 C 332.996094 409.59375 333.285156 409.1875 333.460938 408.71875 C 333.632813 408.25 333.722656 407.667969 333.722656 406.972656 L 333.722656 389.980469 C 333.722656 389.28125 333.632813 388.703125 333.460938 388.234375 C 333.285156 387.765625 332.996094 387.355469 332.59375 387.003906 L 332.953125 387.003906 C 333.304688 387.003906 333.734375 386.984375 334.234375 386.933594 C 334.742188 386.882813 335.589844 386.777344 336.78125 386.613281 Z M 326.019531 407.804688 C 325.199219 408.671875 324.378906 409.316406 323.546875 409.734375 C 322.722656 410.148438 321.839844 410.351563 320.902344 410.351563 C 319.152344 410.351563 317.71875 409.8125 316.605469 408.722656 C 315.496094 407.640625 314.9375 406.230469 314.9375 404.484375 L 314.9375 397.0625 C 314.9375 396.351563 314.847656 395.761719 314.671875 395.28125 C 314.484375 394.800781 314.203125 394.382813 313.8125 394.035156 L 314.269531 394.035156 C 314.898438 394.035156 315.535156 394.007813 316.164063 393.945313 C 316.796875 393.886719 317.425781 393.796875 318.046875 393.679688 L 318.0625 402.746094 C 318.0625 404.472656 318.375 405.726563 318.996094 406.519531 C 319.613281 407.304688 320.609375 407.703125 321.96875 407.703125 C 323.390625 407.703125 324.414063 407.339844 325.03125 406.609375 C 325.648438 405.878906 325.953125 404.65625 325.953125 402.949219 L 325.953125 397.0625 C 325.953125 396.351563 325.863281 395.761719 325.6875 395.28125 C 325.5 394.800781 325.210938 394.382813 324.808594 394.035156 L 325.21875 394.035156 C 325.796875 394.035156 326.398438 394.007813 327.023438 393.945313 C 327.648438 393.886719 328.324219 393.796875 329.046875 393.679688 L 329.046875 406.558594 C 329.046875 407.257813 329.132813 407.84375 329.308594 408.3125 C 329.480469 408.78125 329.769531 409.1875 330.171875 409.539063 L 329.875 409.539063 C 329.398438 409.539063 328.871094 409.570313 328.292969 409.632813 C 327.71875 409.699219 327.015625 409.804688 326.183594 409.945313 Z M 293.722656 416.910156 C 294.121094 416.558594 294.414063 416.152344 294.585938 415.683594 C 294.757813 415.214844 294.847656 414.632813 294.847656 413.9375 L 294.847656 397.0625 C 294.847656 396.351563 294.757813 395.761719 294.582031 395.28125 C 294.394531 394.800781 294.113281 394.386719 293.722656 394.035156 L 294.144531 394.035156 C 294.738281 394.035156 295.328125 394.007813 295.929688 393.945313 C 296.527344 393.886719 297.140625 393.796875 297.761719 393.679688 L 297.90625 396.210938 C 298.726563 395.320313 299.621094 394.648438 300.597656 394.203125 C 301.574219 393.757813 302.617188 393.535156 303.726563 393.535156 C 305.925781 393.535156 307.785156 394.308594 309.289063 395.859375 C 310.804688 397.417969 311.554688 399.332031 311.554688 401.609375 C 311.554688 403.105469 311.265625 404.464844 310.679688 405.703125 C 310.097656 406.9375 309.261719 407.964844 308.175781 408.769531 C 307.453125 409.316406 306.691406 409.71875 305.886719 409.984375 C 305.078125 410.253906 304.210938 410.386719 303.285156 410.386719 C 302.894531 410.386719 302.484375 410.359375 302.058594 410.304688 C 301.632813 410.253906 301.210938 410.175781 300.785156 410.074219 L 298.804688 407.199219 C 299.480469 407.507813 300.109375 407.730469 300.6875 407.875 C 301.265625 408.027344 301.808594 408.097656 302.320313 408.097656 C 304.117188 408.097656 305.519531 407.574219 306.527344 406.53125 C 307.539063 405.480469 308.039063 404.019531 308.039063 402.148438 C 308.039063 400.347656 307.539063 398.875 306.539063 397.71875 C 305.535156 396.5625 304.269531 395.984375 302.726563 395.984375 C 302.074219 395.984375 301.457031 396.101563 300.863281 396.328125 C 300.277344 396.558594 299.746094 396.886719 299.28125 397.324219 C 298.800781 397.757813 298.464844 398.3125 298.269531 398.96875 C 298.074219 399.628906 297.972656 400.742188 297.972656 402.3125 L 297.972656 413.9375 C 297.972656 414.632813 298.0625 415.214844 298.242188 415.683594 C 298.425781 416.152344 298.710938 416.558594 299.101563 416.910156 Z M 279.183594 399.371094 L 287.683594 399.371094 C 287.617188 398.25 287.203125 397.328125 286.4375 396.613281 C 285.679688 395.898438 284.730469 395.542969 283.597656 395.542969 C 282.375 395.542969 281.371094 395.882813 280.589844 396.5625 C 279.804688 397.246094 279.335938 398.183594 279.183594 399.371094 Z M 278.957031 401.609375 C 279.035156 403.589844 279.660156 405.167969 280.839844 406.339844 C 282.023438 407.511719 283.570313 408.097656 285.480469 408.097656 C 286.328125 408.097656 287.226563 407.960938 288.167969 407.679688 C 289.113281 407.402344 290.132813 406.976563 291.230469 406.398438 L 289.464844 409.472656 C 288.519531 409.824219 287.632813 410.085938 286.816406 410.257813 C 285.996094 410.429688 285.234375 410.519531 284.511719 410.519531 C 281.863281 410.519531 279.6875 409.71875 277.972656 408.117188 C 276.261719 406.515625 275.40625 404.484375 275.40625 402.015625 C 275.40625 399.488281 276.191406 397.414063 277.765625 395.792969 C 279.347656 394.175781 281.355469 393.367188 283.808594 393.367188 C 286.066406 393.367188 287.855469 394.101563 289.191406 395.582031 C 290.519531 397.0625 291.199219 399.070313 291.230469 401.609375 Z M 257.773438 409.4375 L 256.691406 405.320313 C 258.011719 406.203125 259.289063 406.855469 260.535156 407.285156 C 261.777344 407.714844 263.007813 407.929688 264.230469 407.929688 C 265.792969 407.929688 267.042969 407.597656 267.988281 406.925781 C 268.9375 406.257813 269.414063 405.386719 269.414063 404.320313 C 269.414063 404.015625 269.363281 403.710938 269.269531 403.40625 C 269.167969 403.105469 269.027344 402.8125 268.839844 402.539063 C 268.425781 401.921875 267.035156 401.035156 264.667969 399.871094 C 264.074219 399.59375 263.609375 399.371094 263.28125 399.203125 C 261.070313 398.09375 259.550781 397.070313 258.726563 396.132813 C 257.90625 395.195313 257.492188 394.082031 257.492188 392.796875 C 257.492188 390.957031 258.246094 389.492188 259.746094 388.40625 C 261.253906 387.324219 263.3125 386.78125 265.929688 386.78125 C 266.683594 386.78125 267.511719 386.832031 268.417969 386.925781 C 269.324219 387.027344 270.304688 387.175781 271.359375 387.382813 L 271.359375 391.195313 C 270.421875 390.488281 269.480469 389.957031 268.53125 389.609375 C 267.582031 389.257813 266.59375 389.085938 265.574219 389.085938 C 264.273438 389.085938 263.230469 389.363281 262.4375 389.917969 C 261.652344 390.476563 261.253906 391.203125 261.253906 392.09375 C 261.253906 392.890625 261.566406 393.59375 262.1875 394.203125 C 262.804688 394.8125 264.199219 395.632813 266.371094 396.652344 C 266.496094 396.710938 266.679688 396.796875 266.929688 396.914063 C 268.761719 397.757813 270.128906 398.527344 271.03125 399.238281 C 271.707031 399.761719 272.238281 400.398438 272.609375 401.152344 C 272.984375 401.90625 273.175781 402.703125 273.175781 403.550781 C 273.175781 405.503906 272.28125 407.15625 270.492188 408.511719 C 268.703125 409.867188 266.472656 410.546875 263.789063 410.546875 C 262.929688 410.546875 262.003906 410.453125 261.007813 410.269531 C 260.015625 410.085938 258.9375 409.804688 257.773438 409.4375 Z M 390.878906 361.601563 C 390.878906 361.050781 391.074219 360.574219 391.464844 360.183594 C 391.859375 359.789063 392.335938 359.59375 392.886719 359.59375 C 393.433594 359.59375 393.898438 359.789063 394.277344 360.183594 C 394.660156 360.574219 394.851563 361.050781 394.851563 361.601563 C 394.851563 362.171875 394.660156 362.652344 394.289063 363.035156 C 393.914063 363.421875 393.445313 363.617188 392.886719 363.617188 C 392.324219 363.617188 391.84375 363.421875 391.457031 363.027344 C 391.074219 362.636719 390.878906 362.160156 390.878906 361.601563 Z M 394.554688 378.789063 C 394.554688 379.488281 394.644531 380.070313 394.824219 380.539063 C 395.007813 381.007813 395.296875 381.414063 395.699219 381.765625 L 390.371094 381.765625 C 390.773438 381.414063 391.0625 381.007813 391.246094 380.539063 C 391.425781 380.070313 391.515625 379.488281 391.515625 378.789063 L 391.515625 368.878906 C 391.515625 368.171875 391.417969 367.578125 391.234375 367.101563 C 391.050781 366.621094 390.761719 366.207031 390.371094 365.855469 C 391.308594 365.832031 392.117188 365.792969 392.792969 365.730469 C 393.46875 365.675781 394.054688 365.59375 394.554688 365.496094 Z M 383.472656 371.417969 C 383.472656 370.285156 383.066406 369.335938 382.257813 368.574219 C 381.441406 367.808594 380.429688 367.429688 379.21875 367.429688 C 378.085938 367.429688 377.183594 367.742188 376.507813 368.367188 C 375.832031 368.996094 375.492188 369.824219 375.492188 370.84375 C 375.492188 372.003906 375.90625 372.96875 376.738281 373.757813 C 377.5625 374.542969 378.578125 374.933594 379.777344 374.933594 C 380.84375 374.933594 381.726563 374.601563 382.421875 373.933594 C 383.121094 373.273438 383.472656 372.433594 383.472656 371.417969 Z M 389.488281 365.125 L 388.472656 367.675781 C 388.382813 367.6875 388.28125 367.695313 388.160156 367.703125 C 388.042969 367.707031 387.851563 367.707031 387.589844 367.707031 C 387.121094 367.707031 386.574219 367.6875 385.957031 367.636719 C 385.335938 367.585938 384.632813 367.511719 383.847656 367.414063 C 384.875 367.96875 385.625 368.589844 386.117188 369.269531 C 386.609375 369.953125 386.855469 370.734375 386.855469 371.613281 C 386.855469 372.640625 386.542969 373.550781 385.917969 374.355469 C 385.285156 375.152344 384.394531 375.78125 383.226563 376.242188 C 382.277344 376.625 381.257813 376.875 380.167969 376.992188 C 380.078125 377.003906 380.023438 377.011719 379.992188 377.011719 L 379.890625 377.027344 C 378.703125 377.1875 378.109375 377.511719 378.109375 377.992188 C 378.109375 378.234375 378.199219 378.398438 378.378906 378.507813 C 378.5625 378.605469 378.863281 378.664063 379.289063 378.664063 C 379.632813 378.664063 380.085938 378.644531 380.636719 378.617188 C 381.183594 378.589844 381.558594 378.578125 381.753906 378.578125 C 384.042969 378.578125 385.894531 379.035156 387.304688 379.953125 C 388.71875 380.867188 389.421875 382.039063 389.421875 383.46875 C 389.421875 385.285156 388.507813 386.78125 386.679688 387.949219 C 384.855469 389.113281 382.492188 389.695313 379.582031 389.695313 C 376.945313 389.695313 374.765625 389.230469 373.046875 388.300781 C 371.335938 387.367188 370.476563 386.210938 370.476563 384.839844 C 370.476563 384.054688 370.78125 383.398438 371.390625 382.882813 C 372 382.355469 372.769531 382.09375 373.695313 382.09375 C 373.914063 382.09375 374.160156 382.121094 374.4375 382.183594 C 374.71875 382.246094 375.046875 382.339844 375.425781 382.46875 C 374.957031 382.535156 374.605469 382.714844 374.359375 383.007813 C 374.113281 383.304688 373.992188 383.707031 373.992188 384.21875 C 373.992188 385.1875 374.582031 386.027344 375.765625 386.738281 C 376.949219 387.445313 378.398438 387.796875 380.117188 387.796875 C 381.832031 387.796875 383.265625 387.40625 384.421875 386.632813 C 385.578125 385.851563 386.152344 384.914063 386.152344 383.8125 C 386.152344 382.753906 385.65625 381.949219 384.660156 381.390625 C 383.671875 380.839844 382.234375 380.558594 380.347656 380.558594 C 380.195313 380.558594 379.761719 380.570313 379.042969 380.59375 C 378.320313 380.617188 377.679688 380.625 377.109375 380.625 C 376.242188 380.625 375.570313 380.46875 375.101563 380.15625 C 374.632813 379.84375 374.398438 379.40625 374.398438 378.824219 C 374.398438 378.28125 374.628906 377.8125 375.082031 377.429688 C 375.53125 377.039063 376.195313 376.75 377.078125 376.554688 C 375.585938 376.234375 374.40625 375.585938 373.527344 374.605469 C 372.65625 373.625 372.222656 372.472656 372.222656 371.15625 C 372.222656 369.371094 372.929688 367.949219 374.347656 366.898438 C 375.765625 365.84375 377.707031 365.320313 380.1875 365.320313 C 380.804688 365.320313 381.710938 365.347656 382.890625 365.410156 C 384.074219 365.46875 384.945313 365.5 385.515625 365.5 C 385.996094 365.5 386.554688 365.46875 387.199219 365.410156 C 387.84375 365.347656 388.605469 365.253906 389.488281 365.125 Z M 355.777344 373.332031 C 355.777344 375.3125 356.285156 376.921875 357.304688 378.144531 C 358.328125 379.371094 359.648438 379.984375 361.285156 379.984375 C 362.824219 379.984375 364.082031 379.4375 365.058594 378.34375 C 366.035156 377.246094 366.519531 375.832031 366.519531 374.097656 C 366.519531 372.234375 366 370.699219 364.957031 369.488281 C 363.917969 368.277344 362.597656 367.675781 360.996094 367.675781 C 359.488281 367.675781 358.242188 368.210938 357.253906 369.285156 C 356.269531 370.359375 355.777344 371.710938 355.777344 373.332031 Z M 352.261719 374.003906 C 352.261719 372.804688 352.488281 371.675781 352.941406 370.625 C 353.394531 369.570313 354.050781 368.632813 354.929688 367.800781 C 355.765625 367.023438 356.746094 366.40625 357.871094 365.972656 C 358.992188 365.539063 360.15625 365.320313 361.367188 365.320313 C 362.625 365.320313 363.757813 365.519531 364.765625 365.921875 C 365.78125 366.328125 366.699219 366.945313 367.519531 367.769531 C 368.320313 368.578125 368.941406 369.488281 369.363281 370.492188 C 369.789063 371.503906 370 372.558594 370 373.65625 C 370 374.867188 369.777344 376 369.332031 377.050781 C 368.886719 378.105469 368.226563 379.035156 367.351563 379.855469 C 366.523438 380.625 365.546875 381.230469 364.425781 381.660156 C 363.304688 382.089844 362.140625 382.304688 360.925781 382.304688 C 359.648438 382.304688 358.511719 382.109375 357.511719 381.71875 C 356.507813 381.324219 355.59375 380.714844 354.761719 379.882813 C 353.957031 379.082031 353.339844 378.164063 352.910156 377.148438 C 352.480469 376.128906 352.261719 375.078125 352.261719 374.003906 Z M 348.914063 378.789063 C 348.914063 379.488281 349.003906 380.070313 349.179688 380.539063 C 349.367188 381.007813 349.648438 381.414063 350.039063 381.765625 L 344.726563 381.765625 C 345.128906 381.414063 345.417969 381.007813 345.59375 380.539063 C 345.765625 380.070313 345.855469 379.488281 345.855469 378.789063 L 345.855469 361.796875 C 345.855469 361.101563 345.765625 360.519531 345.59375 360.050781 C 345.417969 359.582031 345.128906 359.175781 344.726563 358.824219 L 345.085938 358.824219 C 345.4375 358.824219 345.867188 358.800781 346.367188 358.75 C 346.875 358.699219 347.726563 358.59375 348.914063 358.433594 Z M 328.148438 373.332031 C 328.148438 375.3125 328.65625 376.921875 329.675781 378.144531 C 330.699219 379.371094 332.019531 379.984375 333.65625 379.984375 C 335.195313 379.984375 336.453125 379.4375 337.429688 378.34375 C 338.40625 377.246094 338.890625 375.832031 338.890625 374.097656 C 338.890625 372.234375 338.371094 370.699219 337.328125 369.488281 C 336.289063 368.277344 334.96875 367.675781 333.367188 367.675781 C 331.859375 367.675781 330.613281 368.210938 329.625 369.285156 C 328.640625 370.359375 328.148438 371.710938 328.148438 373.332031 Z M 324.632813 374.003906 C 324.632813 372.804688 324.859375 371.675781 325.3125 370.625 C 325.765625 369.570313 326.421875 368.632813 327.300781 367.800781 C 328.136719 367.023438 329.117188 366.40625 330.242188 365.972656 C 331.363281 365.539063 332.527344 365.320313 333.738281 365.320313 C 334.996094 365.320313 336.128906 365.519531 337.136719 365.921875 C 338.152344 366.328125 339.070313 366.945313 339.890625 367.769531 C 340.691406 368.578125 341.3125 369.488281 341.738281 370.492188 C 342.160156 371.503906 342.371094 372.558594 342.371094 373.65625 C 342.371094 374.867188 342.148438 376 341.703125 377.050781 C 341.257813 378.105469 340.597656 379.035156 339.722656 379.855469 C 338.894531 380.625 337.917969 381.230469 336.796875 381.660156 C 335.675781 382.089844 334.511719 382.304688 333.296875 382.304688 C 332.019531 382.304688 330.882813 382.109375 329.882813 381.71875 C 328.878906 381.324219 327.964844 380.714844 327.132813 379.882813 C 326.328125 379.082031 325.710938 378.164063 325.28125 377.148438 C 324.851563 376.128906 324.632813 375.078125 324.632813 374.003906 Z M 310.269531 378.789063 C 310.269531 379.488281 310.359375 380.070313 310.535156 380.539063 C 310.722656 381.007813 311.003906 381.417969 311.394531 381.765625 L 306.050781 381.765625 C 306.453125 381.417969 306.742188 381.007813 306.914063 380.539063 C 307.085938 380.070313 307.175781 379.488281 307.175781 378.789063 L 307.175781 368.886719 C 307.175781 368.175781 307.085938 367.578125 306.910156 367.101563 C 306.726563 366.621094 306.441406 366.207031 306.050781 365.855469 L 306.40625 365.855469 C 306.941406 365.855469 307.507813 365.828125 308.101563 365.765625 C 308.695313 365.703125 309.347656 365.613281 310.058594 365.496094 L 310.203125 368.03125 C 311.023438 367.160156 311.84375 366.519531 312.675781 366.113281 C 313.5 365.703125 314.382813 365.496094 315.320313 365.496094 C 317.082031 365.496094 318.523438 366.035156 319.628906 367.109375 C 320.730469 368.183594 321.285156 369.589844 321.285156 371.320313 L 321.285156 378.789063 C 321.285156 379.488281 321.375 380.070313 321.546875 380.539063 C 321.71875 381.007813 322.011719 381.417969 322.410156 381.765625 L 317.015625 381.765625 C 317.417969 381.417969 317.707031 381.007813 317.890625 380.539063 C 318.070313 380.070313 318.160156 379.488281 318.160156 378.789063 L 318.160156 373.097656 C 318.160156 371.367188 317.847656 370.109375 317.222656 369.316406 C 316.589844 368.527344 315.597656 368.132813 314.238281 368.132813 C 312.824219 368.132813 311.808594 368.496094 311.1875 369.21875 C 310.574219 369.945313 310.269531 371.15625 310.269531 372.859375 Z M 289.714844 381.765625 C 290.117188 381.414063 290.40625 381.007813 290.582031 380.539063 C 290.753906 380.070313 290.84375 379.488281 290.84375 378.789063 L 290.84375 361.796875 C 290.84375 361.101563 290.753906 360.519531 290.582031 360.050781 C 290.40625 359.582031 290.117188 359.175781 289.714844 358.824219 L 290.011719 358.824219 C 290.46875 358.824219 290.992188 358.796875 291.585938 358.734375 C 292.183594 358.671875 292.964844 358.574219 293.933594 358.433594 L 293.933594 378.789063 C 293.933594 379.488281 294.023438 380.070313 294.203125 380.539063 C 294.386719 381.007813 294.671875 381.414063 295.0625 381.765625 Z M 298.605469 365.855469 L 303.511719 365.855469 L 298.019531 372.589844 L 303.230469 379.308594 C 303.375 379.511719 303.914063 380.070313 304.851563 380.996094 C 305.179688 381.324219 305.4375 381.582031 305.621094 381.765625 L 302.398438 381.765625 C 301.886719 381.765625 301.429688 381.632813 301.027344 381.363281 C 300.625 381.09375 300.144531 380.582031 299.585938 379.816406 L 294.636719 372.886719 L 298.019531 369.042969 C 298.347656 368.652344 298.605469 368.277344 298.792969 367.914063 C 298.984375 367.558594 299.082031 367.261719 299.082031 367.03125 C 299.082031 366.871094 299.046875 366.6875 298.96875 366.492188 C 298.890625 366.296875 298.773438 366.085938 298.605469 365.855469 Z M 275.179688 371.191406 L 283.679688 371.191406 C 283.609375 370.070313 283.199219 369.148438 282.433594 368.433594 C 281.675781 367.71875 280.726563 367.363281 279.59375 367.363281 C 278.371094 367.363281 277.367188 367.703125 276.585938 368.382813 C 275.796875 369.0625 275.328125 370 275.179688 371.191406 Z M 274.949219 373.429688 C 275.027344 375.410156 275.652344 376.988281 276.835938 378.160156 C 278.019531 379.332031 279.566406 379.917969 281.472656 379.917969 C 282.324219 379.917969 283.21875 379.777344 284.164063 379.5 C 285.105469 379.21875 286.128906 378.796875 287.226563 378.214844 L 285.457031 381.289063 C 284.515625 381.640625 283.628906 381.90625 282.8125 382.078125 C 281.992188 382.25 281.226563 382.339844 280.507813 382.339844 C 277.859375 382.339844 275.679688 381.535156 273.96875 379.933594 C 272.253906 378.332031 271.402344 376.300781 271.402344 373.835938 C 271.402344 371.308594 272.1875 369.230469 273.761719 367.613281 C 275.339844 365.996094 277.351563 365.183594 279.804688 365.183594 C 282.058594 365.183594 283.851563 365.921875 285.183594 367.402344 C 286.511719 368.878906 287.195313 370.890625 287.226563 373.429688 Z M 267.097656 377.742188 C 267.097656 378.886719 267.203125 379.734375 267.410156 380.285156 C 267.617188 380.832031 267.957031 381.328125 268.4375 381.765625 L 262.210938 381.765625 C 262.699219 381.328125 263.046875 380.832031 263.25 380.285156 C 263.449219 379.734375 263.550781 378.886719 263.550781 377.742188 L 263.550781 361.542969 L 261.71875 361.542969 C 260.453125 361.542969 259.429688 361.640625 258.644531 361.835938 C 257.855469 362.03125 257.234375 362.351563 256.765625 362.785156 L 257.890625 359.058594 L 274.128906 359.058594 L 273.0625 362.71875 C 272.730469 362.316406 272.28125 362.015625 271.734375 361.824219 C 271.183594 361.636719 270.484375 361.542969 269.648438 361.542969 L 267.097656 361.542969 Z M 352.957031 339.996094 L 350.78125 339.996094 L 350.78125 338.816406 C 352.089844 338.699219 353.117188 338.097656 353.867188 337.011719 C 354.609375 335.925781 355.007813 334.453125 355.066406 332.589844 L 356.03125 332.589844 L 356.03125 337.675781 L 360.757813 337.675781 L 360.757813 340.648438 C 360.496094 340.421875 360.175781 340.253906 359.804688 340.152344 C 359.425781 340.046875 358.933594 339.996094 358.320313 339.996094 L 356.03125 339.996094 L 356.03125 347.730469 C 356.03125 349.148438 356.265625 350.1875 356.738281 350.847656 C 357.214844 351.511719 357.953125 351.847656 358.945313 351.847656 C 359.171875 351.835938 359.414063 351.816406 359.664063 351.777344 C 359.914063 351.738281 360.167969 351.6875 360.410156 351.621094 L 358.808594 353.957031 C 358.789063 353.957031 358.761719 353.957031 358.730469 353.957031 C 358.292969 354.003906 357.980469 354.023438 357.785156 354.023438 C 356.175781 354.023438 354.972656 353.621094 354.167969 352.8125 C 353.359375 352.011719 352.957031 350.816406 352.957031 349.230469 Z M 344.949219 351.441406 C 344.128906 352.3125 343.308594 352.953125 342.476563 353.371094 C 341.652344 353.785156 340.769531 353.992188 339.832031 353.992188 C 338.078125 353.992188 336.644531 353.449219 335.535156 352.363281 C 334.425781 351.277344 333.867188 349.867188 333.867188 348.121094 L 333.867188 340.699219 C 333.867188 339.988281 333.777344 339.398438 333.597656 338.917969 C 333.414063 338.4375 333.128906 338.019531 332.738281 337.675781 L 333.195313 337.675781 C 333.828125 337.675781 334.464844 337.644531 335.09375 337.585938 C 335.722656 337.523438 336.355469 337.433594 336.972656 337.316406 L 336.992188 346.386719 C 336.992188 348.109375 337.304688 349.363281 337.921875 350.15625 C 338.542969 350.945313 339.535156 351.339844 340.898438 351.339844 C 342.320313 351.339844 343.339844 350.976563 343.960938 350.246094 C 344.574219 349.515625 344.882813 348.292969 344.882813 346.585938 L 344.882813 340.699219 C 344.882813 339.988281 344.792969 339.398438 344.613281 338.917969 C 344.429688 338.4375 344.140625 338.019531 343.738281 337.675781 L 344.144531 337.675781 C 344.726563 337.675781 345.328125 337.644531 345.953125 337.585938 C 346.578125 337.523438 347.253906 337.433594 347.972656 337.316406 L 347.972656 350.195313 C 347.972656 350.894531 348.0625 351.480469 348.234375 351.949219 C 348.410156 352.417969 348.699219 352.824219 349.101563 353.175781 L 348.804688 353.175781 C 348.324219 353.175781 347.800781 353.210938 347.21875 353.269531 C 346.644531 353.339844 345.941406 353.445313 345.109375 353.582031 Z M 322.714844 339.996094 L 320.539063 339.996094 L 320.539063 338.816406 C 321.851563 338.699219 322.878906 338.097656 323.625 337.011719 C 324.367188 335.925781 324.769531 334.453125 324.824219 332.589844 L 325.792969 332.589844 L 325.792969 337.675781 L 330.519531 337.675781 L 330.519531 340.648438 C 330.253906 340.421875 329.9375 340.253906 329.5625 340.152344 C 329.183594 340.046875 328.691406 339.996094 328.078125 339.996094 L 325.792969 339.996094 L 325.792969 347.730469 C 325.792969 349.148438 326.027344 350.1875 326.5 350.847656 C 326.972656 351.511719 327.710938 351.847656 328.703125 351.847656 C 328.933594 351.835938 329.171875 351.816406 329.425781 351.777344 C 329.675781 351.738281 329.925781 351.6875 330.171875 351.621094 L 328.570313 353.957031 C 328.546875 353.957031 328.519531 353.957031 328.492188 353.957031 C 328.050781 354.003906 327.738281 354.023438 327.542969 354.023438 C 325.9375 354.023438 324.730469 353.621094 323.925781 352.8125 C 323.117188 352.011719 322.714844 350.816406 322.714844 349.230469 Z M 313.878906 333.421875 C 313.878906 332.871094 314.074219 332.394531 314.464844 332.003906 C 314.859375 331.609375 315.332031 331.414063 315.886719 331.414063 C 316.433594 331.414063 316.894531 331.609375 317.277344 332.003906 C 317.660156 332.394531 317.851563 332.871094 317.851563 333.421875 C 317.851563 333.992188 317.660156 334.472656 317.285156 334.855469 C 316.914063 335.242188 316.445313 335.4375 315.886719 335.4375 C 315.324219 335.4375 314.84375 335.242188 314.457031 334.84375 C 314.074219 334.453125 313.878906 333.980469 313.878906 333.421875 Z M 317.554688 350.609375 C 317.554688 351.308594 317.644531 351.886719 317.824219 352.355469 C 318.007813 352.824219 318.296875 353.234375 318.699219 353.582031 L 313.371094 353.582031 C 313.769531 353.234375 314.0625 352.824219 314.246094 352.355469 C 314.421875 351.886719 314.511719 351.308594 314.511719 350.609375 L 314.511719 340.699219 C 314.511719 339.988281 314.417969 339.398438 314.234375 338.917969 C 314.050781 338.4375 313.761719 338.027344 313.371094 337.675781 C 314.308594 337.652344 315.117188 337.613281 315.792969 337.550781 C 316.464844 337.496094 317.050781 337.410156 317.554688 337.316406 Z M 303.152344 339.996094 L 300.976563 339.996094 L 300.976563 338.816406 C 302.285156 338.699219 303.3125 338.097656 304.0625 337.011719 C 304.804688 335.925781 305.207031 334.453125 305.261719 332.589844 L 306.226563 332.589844 L 306.226563 337.675781 L 310.953125 337.675781 L 310.953125 340.648438 C 310.691406 340.421875 310.375 340.253906 310 340.152344 C 309.621094 340.046875 309.128906 339.996094 308.515625 339.996094 L 306.226563 339.996094 L 306.226563 347.730469 C 306.226563 349.148438 306.460938 350.1875 306.933594 350.847656 C 307.410156 351.511719 308.144531 351.847656 309.140625 351.847656 C 309.367188 351.835938 309.609375 351.816406 309.859375 351.777344 C 310.109375 351.738281 310.363281 351.6875 310.605469 351.621094 L 309.003906 353.957031 C 308.984375 353.957031 308.957031 353.957031 308.925781 353.957031 C 308.488281 354.003906 308.175781 354.023438 307.980469 354.023438 C 306.371094 354.023438 305.167969 353.621094 304.363281 352.8125 C 303.554688 352.011719 303.152344 350.816406 303.152344 349.230469 Z M 286.984375 353.253906 L 285.679688 349.628906 C 286.914063 350.453125 288.050781 351.074219 289.09375 351.472656 C 290.144531 351.875 291.136719 352.078125 292.074219 352.078125 C 293.242188 352.078125 294.171875 351.847656 294.875 351.394531 C 295.578125 350.945313 295.929688 350.347656 295.929688 349.59375 C 295.929688 348.65625 294.734375 347.714844 292.347656 346.765625 C 291.769531 346.542969 291.320313 346.351563 291.007813 346.210938 C 289.601563 345.621094 288.582031 344.96875 287.9375 344.246094 C 287.304688 343.527344 286.984375 342.679688 286.984375 341.699219 C 286.984375 340.292969 287.542969 339.175781 288.652344 338.347656 C 289.765625 337.519531 291.289063 337.105469 293.21875 337.105469 C 293.839844 337.105469 294.519531 337.148438 295.261719 337.246094 C 296.003906 337.339844 296.777344 337.46875 297.597656 337.644531 L 297.597656 340.492188 C 296.769531 340.078125 295.964844 339.761719 295.175781 339.542969 C 294.390625 339.324219 293.636719 339.214844 292.90625 339.214844 C 292.074219 339.214844 291.417969 339.394531 290.925781 339.746094 C 290.433594 340.101563 290.1875 340.570313 290.1875 341.160156 C 290.1875 342 291.183594 342.78125 293.167969 343.5 C 294.015625 343.800781 294.691406 344.0625 295.195313 344.28125 C 296.613281 344.882813 297.648438 345.542969 298.3125 346.261719 C 298.976563 346.984375 299.3125 347.8125 299.3125 348.761719 C 299.3125 350.398438 298.609375 351.707031 297.203125 352.703125 C 295.796875 353.691406 293.90625 354.1875 291.527344 354.1875 C 290.667969 354.1875 289.871094 354.109375 289.128906 353.957031 C 288.386719 353.808594 287.671875 353.574219 286.984375 353.253906 Z M 271.6875 350.609375 C 271.6875 351.308594 271.777344 351.886719 271.957031 352.355469 C 272.140625 352.824219 272.425781 353.238281 272.816406 353.582031 L 267.46875 353.582031 C 267.871094 353.238281 268.164063 352.824219 268.335938 352.355469 C 268.507813 351.886719 268.597656 351.308594 268.597656 350.609375 L 268.597656 340.703125 C 268.597656 339.996094 268.507813 339.398438 268.328125 338.917969 C 268.144531 338.4375 267.859375 338.027344 267.46875 337.675781 L 267.828125 337.675781 C 268.363281 337.675781 268.925781 337.644531 269.523438 337.585938 C 270.117188 337.523438 270.769531 337.433594 271.476563 337.316406 L 271.621094 339.851563 C 272.441406 338.980469 273.261719 338.339844 274.09375 337.929688 C 274.921875 337.523438 275.800781 337.316406 276.738281 337.316406 C 278.503906 337.316406 279.941406 337.851563 281.046875 338.929688 C 282.152344 340 282.703125 341.40625 282.703125 343.136719 L 282.703125 350.609375 C 282.703125 351.308594 282.792969 351.886719 282.96875 352.355469 C 283.140625 352.824219 283.429688 353.238281 283.832031 353.582031 L 278.4375 353.582031 C 278.839844 353.238281 279.128906 352.824219 279.3125 352.355469 C 279.492188 351.886719 279.578125 351.308594 279.578125 350.609375 L 279.578125 344.917969 C 279.578125 343.1875 279.269531 341.925781 278.644531 341.132813 C 278.011719 340.347656 277.019531 339.949219 275.65625 339.949219 C 274.246094 339.949219 273.230469 340.3125 272.609375 341.039063 C 271.996094 341.765625 271.6875 342.976563 271.6875 344.675781 Z M 262.988281 349.5625 C 262.988281 350.703125 263.089844 351.554688 263.292969 352.105469 C 263.492188 352.65625 263.835938 353.148438 264.328125 353.582031 L 258.101563 353.582031 C 258.59375 353.148438 258.9375 352.65625 259.140625 352.105469 C 259.339844 351.554688 259.441406 350.703125 259.441406 349.5625 L 259.441406 334.867188 C 259.441406 333.722656 259.339844 332.875 259.140625 332.332031 C 258.9375 331.785156 258.59375 331.300781 258.101563 330.878906 L 264.328125 330.878906 C 263.835938 331.300781 263.492188 331.785156 263.292969 332.332031 C 263.089844 332.875 262.988281 333.722656 262.988281 334.867188 Z M 69.386719 340.984375 C 69.386719 346.601563 70.03125 352.207031 71.316406 357.671875 C 74.105469 357.671875 76.898438 357.671875 79.691406 357.671875 C 81.171875 363.226563 83.398438 368.578125 86.296875 373.550781 C 84.316406 375.53125 82.335938 377.511719 80.355469 379.492188 C 83.3125 384.269531 86.816406 388.6875 90.792969 392.660156 C 94.765625 396.636719 99.183594 400.140625 103.957031 403.097656 C 105.9375 401.117188 107.917969 399.136719 109.902344 397.15625 C 114.875 400.054688 120.222656 402.28125 125.777344 403.761719 C 125.777344 406.554688 125.777344 409.34375 125.777344 412.136719 C 131.246094 413.417969 136.84375 414.066406 142.46875 414.066406 C 148.09375 414.066406 153.691406 413.417969 159.160156 412.136719 C 159.160156 409.34375 159.160156 406.554688 159.160156 403.761719 C 164.714844 402.28125 170.0625 400.054688 175.035156 397.15625 C 177.019531 399.136719 179 401.117188 180.980469 403.097656 C 185.753906 400.140625 190.171875 396.636719 194.144531 392.660156 C 198.121094 388.6875 201.625 384.269531 204.585938 379.492188 C 202.601563 377.511719 200.621094 375.53125 198.640625 373.550781 C 201.539063 368.578125 203.765625 363.226563 205.246094 357.671875 C 208.039063 357.671875 210.832031 357.671875 213.621094 357.671875 C 214.90625 352.207031 215.550781 346.601563 215.550781 340.984375 C 215.550781 335.367188 214.90625 329.761719 213.621094 324.296875 C 210.832031 324.296875 208.039063 324.296875 205.246094 324.296875 C 203.765625 318.742188 201.539063 313.390625 198.640625 308.417969 C 200.621094 306.4375 202.601563 304.457031 204.585938 302.476563 C 201.625 297.699219 198.121094 293.28125 194.144531 289.304688 C 190.171875 285.332031 185.753906 281.828125 180.980469 278.871094 C 179 280.851563 177.019531 282.832031 175.035156 284.8125 C 170.0625 281.914063 164.714844 279.6875 159.160156 278.207031 C 159.160156 275.414063 159.160156 272.625 159.160156 269.832031 C 153.691406 268.546875 148.09375 267.902344 142.46875 267.902344 C 136.84375 267.902344 131.246094 268.546875 125.777344 269.832031 C 125.777344 272.625 125.777344 275.414063 125.777344 278.207031 C 120.222656 279.6875 114.875 281.914063 109.902344 284.8125 C 107.917969 282.832031 105.9375 280.851563 103.957031 278.871094 C 99.183594 281.828125 94.765625 285.332031 90.792969 289.304688 C 86.816406 293.28125 83.3125 297.699219 80.355469 302.476563 C 82.335938 304.457031 84.316406 306.4375 86.296875 308.417969 C 83.398438 313.390625 81.171875 318.742188 79.691406 324.296875 C 76.898438 324.296875 74.105469 324.296875 71.316406 324.296875 C 70.03125 329.761719 69.386719 335.367188 69.386719 340.984375 Z M 135.710938 289.449219 C 110.253906 292.78125 90.492188 314.648438 90.492188 340.984375 C 90.492188 359.285156 100.035156 375.425781 114.402344 384.691406 C 119.53125 382.707031 124.109375 379.878906 128.769531 376.882813 C 126.671875 376.125 124.859375 375.550781 123.804688 375.253906 C 117.011719 373.351563 110.433594 368.363281 108.1875 361.085938 C 106.386719 355.257813 108.445313 349.65625 107.996094 343.773438 C 107.554688 337.992188 106.410156 333.269531 103.71875 328.070313 C 110.332031 328.621094 114.878906 330.613281 119.316406 334.058594 C 119.023438 330.425781 117.671875 327.015625 116.144531 323.519531 C 123.355469 323.644531 128.355469 325.554688 133.128906 329.066406 Z M 135.664063 325.800781 C 137.742188 323.121094 140.042969 320.671875 142.46875 318.492188 C 144.894531 320.671875 147.195313 323.121094 149.277344 325.800781 L 146.257813 276.792969 L 142.46875 272.027344 L 138.679688 276.792969 Z M 151.808594 329.066406 C 156.582031 325.554688 161.582031 323.644531 168.792969 323.519531 C 167.265625 327.015625 165.914063 330.425781 165.621094 334.058594 C 170.058594 330.613281 174.605469 328.621094 181.21875 328.070313 C 178.527344 333.269531 177.382813 337.992188 176.941406 343.773438 C 176.496094 349.65625 178.550781 355.257813 176.75 361.085938 C 174.503906 368.363281 167.925781 373.351563 161.132813 375.253906 C 160.078125 375.550781 158.265625 376.125 156.167969 376.882813 C 160.828125 379.878906 165.40625 382.707031 170.539063 384.691406 C 184.902344 375.425781 194.445313 359.285156 194.445313 340.984375 C 194.445313 314.648438 174.683594 292.78125 149.226563 289.453125 Z M 152.949219 331.3125 C 156.648438 337.910156 159.320313 346.066406 159.242188 354.171875 C 159.175781 361.203125 155.539063 371.53125 148.910156 377.308594 C 155.273438 373.8125 165.519531 364.710938 166.113281 356.628906 C 166.652344 349.25 163.789063 342.960938 163.171875 335.816406 C 162.894531 332.632813 164.113281 328.765625 165.132813 325.90625 C 160.5 326.503906 155.941406 328.886719 152.949219 331.3125 Z M 131.988281 331.3125 C 128.996094 328.886719 124.4375 326.503906 119.804688 325.90625 C 120.824219 328.765625 122.042969 332.632813 121.765625 335.816406 C 121.148438 342.960938 118.285156 349.25 118.824219 356.628906 C 119.417969 364.710938 129.664063 373.8125 136.027344 377.308594 C 129.398438 371.53125 125.761719 361.203125 125.695313 354.171875 C 125.617188 346.066406 128.289063 337.910156 131.988281 331.3125 Z M 119.222656 337.546875 C 116.476563 334.433594 111.664063 332.144531 107.761719 330.894531 C 109.703125 334.589844 110.335938 339.28125 110.625 343.167969 C 111.066406 349.097656 109.011719 355.789063 110.945313 361.082031 C 113.875 369.101563 121.101563 371.84375 128.734375 374.171875 C 122.207031 369.917969 117.078125 364.144531 116.449219 356.425781 C 115.925781 349.960938 118.5625 343.652344 119.222656 337.546875 Z M 165.714844 337.546875 C 166.375 343.652344 169.011719 349.960938 168.488281 356.425781 C 167.859375 364.144531 162.730469 369.917969 156.203125 374.171875 C 163.835938 371.84375 171.0625 369.101563 173.992188 361.082031 C 175.925781 355.789063 173.871094 349.097656 174.3125 343.167969 C 174.601563 339.28125 175.234375 334.589844 177.175781 330.894531 C 173.273438 332.144531 168.460938 334.433594 165.714844 337.546875 Z M 142.46875 380.222656 C 150.25 374.367188 156.554688 364.964844 156.648438 354.796875 C 156.769531 341.695313 150.386719 329.621094 142.46875 321.835938 C 134.550781 329.621094 128.171875 341.695313 128.289063 354.796875 C 128.382813 364.964844 134.6875 374.367188 142.46875 380.222656 Z M 132.632813 378.375 C 128 382.378906 122.726563 385.476563 117.101563 387.574219 L 119.5 391.589844 L 165.4375 391.589844 L 167.835938 387.574219 C 162.210938 385.476563 156.9375 382.378906 152.304688 378.375 C 148.054688 380.132813 143.757813 382.335938 142.46875 384.375 C 141.179688 382.335938 136.882813 380.132813 132.632813 378.375 Z M 149.015625 286.179688 C 176.351563 289.433594 197.671875 312.796875 197.671875 340.984375 C 197.671875 360.667969 187.273438 377.996094 171.695313 387.773438 L 167.28125 395.15625 L 117.65625 395.15625 L 113.242188 387.773438 C 97.664063 377.996094 87.269531 360.667969 87.269531 340.984375 C 87.269531 312.796875 108.585938 289.433594 135.921875 286.175781 L 136.609375 275.597656 L 142.46875 268.625 L 148.328125 275.597656 Z M 142.46875 264.679688 C 149.1875 264.679688 155.894531 265.605469 162.382813 267.332031 L 162.382813 275.898438 C 166.570313 277.183594 170.585938 278.867188 174.390625 280.898438 L 180.464844 274.824219 C 186.277344 278.1875 191.675781 282.277344 196.425781 287.027344 C 201.175781 291.777344 205.265625 297.175781 208.628906 302.988281 L 202.554688 309.0625 C 204.585938 312.867188 206.269531 316.882813 207.554688 321.070313 L 216.121094 321.070313 C 217.851563 327.554688 218.773438 334.269531 218.773438 340.984375 C 218.773438 347.699219 217.851563 354.414063 216.121094 360.898438 L 207.554688 360.898438 C 206.269531 365.085938 204.585938 369.101563 202.554688 372.90625 L 208.628906 378.980469 C 205.265625 384.792969 201.175781 390.191406 196.425781 394.941406 C 191.675781 399.6875 186.277344 403.78125 180.464844 407.144531 L 174.390625 401.070313 C 170.585938 403.101563 166.570313 404.785156 162.382813 406.070313 L 162.382813 414.636719 C 155.894531 416.363281 149.1875 417.289063 142.46875 417.289063 C 135.75 417.289063 129.042969 416.363281 122.554688 414.636719 L 122.554688 406.070313 C 118.367188 404.785156 114.351563 403.101563 110.546875 401.070313 L 104.472656 407.144531 C 98.660156 403.78125 93.261719 399.6875 88.511719 394.941406 C 83.761719 390.191406 79.671875 384.792969 76.308594 378.980469 L 82.382813 372.90625 C 80.351563 369.101563 78.671875 365.085938 77.382813 360.898438 L 68.820313 360.898438 C 67.089844 354.414063 66.164063 347.699219 66.164063 340.984375 C 66.164063 334.269531 67.089844 327.554688 68.820313 321.070313 L 77.382813 321.070313 C 78.671875 316.882813 80.351563 312.867188 82.382813 309.0625 L 76.308594 302.988281 C 79.671875 297.175781 83.761719 291.777344 88.511719 287.027344 C 93.261719 282.277344 98.660156 278.1875 104.472656 274.824219 L 110.546875 280.898438 C 114.351563 278.867188 118.367188 277.183594 122.554688 275.898438 L 122.554688 267.332031 C 129.042969 265.605469 135.75 264.679688 142.46875 264.679688 Z M 142.46875 264.679688 "/>
<path style=" stroke:none;fill-rule:evenodd;fill:rgb(92.96875%,93.75%,95.701599%);fill-opacity:1;" d="M 273.089844 276.703125 L 259.863281 276.703125 L 273.089844 265.148438 Z M 0.00390625 0 L 19.472656 0 L 19.472656 3.042969 L 3.046875 3.042969 L 3.046875 19.464844 L 0.00390625 19.464844 Z M 595.28125 595.277344 L 575.816406 595.277344 L 575.816406 592.234375 L 592.238281 592.234375 L 592.238281 575.808594 L 595.28125 575.808594 Z M 0.0078125 595.277344 L 0.00390625 575.808594 L 3.046875 575.808594 L 3.046875 592.234375 L 19.472656 592.234375 L 19.472656 595.277344 Z M 595.28125 0 L 595.28125 19.464844 L 592.238281 19.464844 L 592.238281 3.042969 L 575.816406 3.042969 L 575.816406 0 Z M 135.710938 289.449219 C 110.253906 292.78125 90.492188 314.648438 90.492188 340.984375 C 90.492188 359.285156 100.035156 375.425781 114.402344 384.691406 C 119.53125 382.707031 124.109375 379.878906 128.769531 376.882813 C 126.671875 376.125 124.859375 375.550781 123.804688 375.253906 C 117.011719 373.351563 110.433594 368.363281 108.1875 361.085938 C 106.386719 355.257813 108.445313 349.65625 107.996094 343.773438 C 107.554688 337.992188 106.410156 333.269531 103.71875 328.070313 C 110.332031 328.621094 114.878906 330.613281 119.316406 334.058594 C 119.023438 330.425781 117.671875 327.015625 116.144531 323.519531 C 123.355469 323.644531 128.355469 325.554688 133.128906 329.066406 Z M 135.664063 325.800781 C 137.742188 323.121094 140.042969 320.671875 142.46875 318.492188 C 144.894531 320.671875 147.195313 323.121094 149.277344 325.800781 L 146.257813 276.792969 L 142.46875 272.027344 L 138.679688 276.792969 Z M 151.808594 329.066406 C 156.582031 325.554688 161.582031 323.644531 168.792969 323.519531 C 167.265625 327.015625 165.914063 330.425781 165.621094 334.058594 C 170.058594 330.613281 174.605469 328.621094 181.21875 328.070313 C 178.527344 333.269531 177.382813 337.992188 176.941406 343.773438 C 176.496094 349.65625 178.550781 355.257813 176.75 361.085938 C 174.503906 368.363281 167.925781 373.351563 161.132813 375.253906 C 160.078125 375.550781 158.265625 376.125 156.167969 376.882813 C 160.828125 379.878906 165.40625 382.707031 170.539063 384.691406 C 184.902344 375.425781 194.445313 359.285156 194.445313 340.984375 C 194.445313 314.648438 174.683594 292.78125 149.226563 289.453125 Z M 149.015625 286.179688 C 176.351563 289.433594 197.671875 312.796875 197.671875 340.984375 C 197.671875 360.667969 187.273438 377.996094 171.695313 387.773438 L 167.28125 395.15625 L 117.65625 395.15625 L 113.242188 387.773438 C 97.664063 377.996094 87.269531 360.667969 87.269531 340.984375 C 87.269531 312.796875 108.585938 289.433594 135.921875 286.175781 L 136.609375 275.597656 L 142.46875 268.625 L 148.328125 275.597656 Z M 152.949219 331.3125 C 156.648438 337.910156 159.320313 346.066406 159.242188 354.171875 C 159.175781 361.203125 155.539063 371.53125 148.910156 377.308594 C 155.273438 373.8125 165.519531 364.710938 166.113281 356.628906 C 166.652344 349.25 163.789063 342.960938 163.171875 335.816406 C 162.894531 332.632813 164.113281 328.765625 165.132813 325.90625 C 160.5 326.503906 155.941406 328.886719 152.949219 331.3125 Z M 131.988281 331.3125 C 128.996094 328.886719 124.4375 326.503906 119.804688 325.90625 C 120.824219 328.765625 122.042969 332.632813 121.765625 335.816406 C 121.148438 342.960938 118.285156 349.25 118.824219 356.628906 C 119.417969 364.710938 129.664063 373.8125 136.027344 377.308594 C 129.398438 371.53125 125.761719 361.203125 125.695313 354.171875 C 125.617188 346.066406 128.289063 337.910156 131.988281 331.3125 Z M 119.222656 337.546875 C 116.476563 334.433594 111.664063 332.144531 107.761719 330.894531 C 109.703125 334.589844 110.335938 339.28125 110.625 343.167969 C 111.066406 349.097656 109.011719 355.789063 110.945313 361.082031 C 113.875 369.101563 121.101563 371.84375 128.734375 374.171875 C 122.207031 369.917969 117.078125 364.144531 116.449219 356.425781 C 115.925781 349.960938 118.5625 343.652344 119.222656 337.546875 Z M 165.714844 337.546875 C 166.375 343.652344 169.011719 349.960938 168.488281 356.425781 C 167.859375 364.144531 162.730469 369.917969 156.203125 374.171875 C 163.835938 371.84375 171.0625 369.101563 173.992188 361.082031 C 175.925781 355.789063 173.871094 349.097656 174.3125 343.167969 C 174.601563 339.28125 175.234375 334.589844 177.175781 330.894531 C 173.273438 332.144531 168.460938 334.433594 165.714844 337.546875 Z M 142.46875 380.222656 C 150.25 374.367188 156.554688 364.964844 156.648438 354.796875 C 156.769531 341.695313 150.386719 329.621094 142.46875 321.835938 C 134.550781 329.621094 128.171875 341.695313 128.289063 354.796875 C 128.382813 364.964844 134.6875 374.367188 142.46875 380.222656 Z M 132.632813 378.375 C 128 382.378906 122.726563 385.476563 117.101563 387.574219 L 119.5 391.589844 L 165.4375 391.589844 L 167.835938 387.574219 C 162.210938 385.476563 156.9375 382.378906 152.304688 378.375 C 148.054688 380.132813 143.757813 382.335938 142.46875 384.375 C 141.179688 382.335938 136.882813 380.132813 132.632813 378.375 Z M 69.386719 340.984375 C 69.386719 346.601563 70.03125 352.207031 71.316406 357.671875 C 74.105469 357.671875 76.898438 357.671875 79.691406 357.671875 C 81.171875 363.226563 83.398438 368.578125 86.296875 373.550781 C 84.316406 375.53125 82.335938 377.511719 80.355469 379.492188 C 83.3125 384.269531 86.816406 388.6875 90.792969 392.660156 C 94.765625 396.636719 99.183594 400.140625 103.957031 403.097656 C 105.9375 401.117188 107.917969 399.136719 109.902344 397.15625 C 114.875 400.054688 120.222656 402.28125 125.777344 403.761719 C 125.777344 406.554688 125.777344 409.34375 125.777344 412.136719 C 131.246094 413.417969 136.84375 414.066406 142.46875 414.066406 C 148.09375 414.066406 153.691406 413.417969 159.160156 412.136719 C 159.160156 409.34375 159.160156 406.554688 159.160156 403.761719 C 164.714844 402.28125 170.0625 400.054688 175.035156 397.15625 C 177.019531 399.136719 179 401.117188 180.980469 403.097656 C 185.753906 400.140625 190.171875 396.636719 194.144531 392.660156 C 198.121094 388.6875 201.625 384.269531 204.585938 379.492188 C 202.601563 377.511719 200.621094 375.53125 198.640625 373.550781 C 201.539063 368.578125 203.765625 363.226563 205.246094 357.671875 C 208.039063 357.671875 210.832031 357.671875 213.621094 357.671875 C 214.90625 352.207031 215.550781 346.601563 215.550781 340.984375 C 215.550781 335.367188 214.90625 329.761719 213.621094 324.296875 C 210.832031 324.296875 208.039063 324.296875 205.246094 324.296875 C 203.765625 318.742188 201.539063 313.390625 198.640625 308.417969 C 200.621094 306.4375 202.601563 304.457031 204.585938 302.476563 C 201.625 297.699219 198.121094 293.28125 194.144531 289.304688 C 190.171875 285.332031 185.753906 281.828125 180.980469 278.871094 C 179 280.851563 177.019531 282.832031 175.035156 284.8125 C 170.0625 281.914063 164.714844 279.6875 159.160156 278.207031 C 159.160156 275.414063 159.160156 272.625 159.160156 269.832031 C 153.691406 268.546875 148.09375 267.902344 142.46875 267.902344 C 136.84375 267.902344 131.246094 268.546875 125.777344 269.832031 C 125.777344 272.625 125.777344 275.414063 125.777344 278.207031 C 120.222656 279.6875 114.875 281.914063 109.902344 284.8125 C 107.917969 282.832031 105.9375 280.851563 103.957031 278.871094 C 99.183594 281.828125 94.765625 285.332031 90.792969 289.304688 C 86.816406 293.28125 83.3125 297.699219 80.355469 302.476563 C 82.335938 304.457031 84.316406 306.4375 86.296875 308.417969 C 83.398438 313.390625 81.171875 318.742188 79.691406 324.296875 C 76.898438 324.296875 74.105469 324.296875 71.316406 324.296875 C 70.03125 329.761719 69.386719 335.367188 69.386719 340.984375 Z M 142.46875 264.679688 C 149.1875 264.679688 155.894531 265.605469 162.382813 267.332031 L 162.382813 275.898438 C 166.570313 277.183594 170.585938 278.867188 174.390625 280.898438 L 180.464844 274.824219 C 186.277344 278.1875 191.675781 282.277344 196.425781 287.027344 C 201.175781 291.777344 205.265625 297.175781 208.628906 302.988281 L 202.554688 309.0625 C 204.585938 312.867188 206.269531 316.882813 207.554688 321.070313 L 216.121094 321.070313 C 217.851563 327.554688 218.773438 334.269531 218.773438 340.984375 C 218.773438 347.699219 217.851563 354.414063 216.121094 360.898438 L 207.554688 360.898438 C 206.269531 365.085938 204.585938 369.101563 202.554688 372.90625 L 208.628906 378.980469 C 205.265625 384.792969 201.175781 390.191406 196.425781 394.941406 C 191.675781 399.6875 186.277344 403.78125 180.464844 407.144531 L 174.390625 401.070313 C 170.585938 403.101563 166.570313 404.785156 162.382813 406.070313 L 162.382813 414.636719 C 155.894531 416.363281 149.1875 417.289063 142.46875 417.289063 C 135.75 417.289063 129.042969 416.363281 122.554688 414.636719 L 122.554688 406.070313 C 118.367188 404.785156 114.351563 403.101563 110.546875 401.070313 L 104.472656 407.144531 C 98.660156 403.78125 93.261719 399.6875 88.511719 394.941406 C 83.761719 390.191406 79.671875 384.792969 76.308594 378.980469 L 82.382813 372.90625 C 80.351563 369.101563 78.671875 365.085938 77.382813 360.898438 L 68.820313 360.898438 C 67.089844 354.414063 66.164063 347.699219 66.164063 340.984375 C 66.164063 334.269531 67.089844 327.554688 68.820313 321.070313 L 77.382813 321.070313 C 78.671875 316.882813 80.351563 312.867188 82.382813 309.0625 L 76.308594 302.988281 C 79.671875 297.175781 83.761719 291.777344 88.511719 287.027344 C 93.261719 282.277344 98.660156 278.1875 104.472656 274.824219 L 110.546875 280.898438 C 114.351563 278.867188 118.367188 277.183594 122.554688 275.898438 L 122.554688 267.332031 C 129.042969 265.605469 135.75 264.679688 142.46875 264.679688 Z M 142.46875 264.679688 "/>
</g>
</g>
</svg>
